<?xml version="1.0" encoding="utf-8"?>
<!-- Generator: Adobe Illustrator 22.1.0, SVG Export Plug-In . SVG Version: 6.00 Build 0)  -->
<svg version="1.1" id="Layer_4" xmlns="http://www.w3.org/2000/svg" xmlns:xlink="http://www.w3.org/1999/xlink" x="0px" y="0px"
	 viewBox="0 0 42.3 42.5" style="enable-background:new 0 0 42.3 42.5;" xml:space="preserve">
<style type="text/css">
	.st0{fill:#FFFFFF;}
	.st1{fill:#BAD1DA;}
	.st2{fill:#236B88;}
</style>
<path class="st0" d="M8.6,4.4v21.2c0,0-2.3-0.1-2.6,0.6c-0.3,0.8-0.3,1.9,0,2.3s-0.5,1.7-0.4,1.8s0,1.1,0,1.1l-2.5,0.6l-1.8,1.4
	l-0.8,2.4c0,0,0.8,4.2,2,4.6s2.6,1.1,2.6,1.1l12.3-0.2c0,0,1.4-1.1,1.3-1.5c-0.1-0.4-0.7-1.9-0.8-1.8c-0.1,0.2,0.8-2,0.8-2
	s2,0,1.9,0s0-17.1,0-17.1s0.5-4.5,3.9-4.5c3.3-0.1,8.7-0.1,8.7-0.1V7l-4.4-5.2l-2.1-1.2H11.6L9.2,2L8.6,4.4z"/>
<polygon class="st1" points="31.2,14.6 24.8,14.7 22.5,15.5 20.6,18.6 20.6,37.2 21.7,40.6 24.5,41.9 38,41.7 40.2,40.8 41.7,38.2 
	41.7,18.6 40.9,16.1 38.5,14.6 "/>
<polygon class="st0" points="26,17.2 24.2,17.5 23.9,19.5 23.9,21.4 24.5,22.4 37.4,22.4 38.6,21.5 38.4,18.1 37.3,17.2 "/>
<path class="st2" d="M37.2,13.9h-3.1v-6c0-1-0.4-2-1.1-2.7l-2-2.1c-1.7-1.7-1.9-2.2-2.9-2.7C27.7,0.2,27.1,0,26.5,0H12
	C9.9,0,8.1,1.8,8.1,3.9v21H7.3c-1.2,0-2.2,1-2.2,2.2c0,0.6,0.2,1.2,0.7,1.6c-0.4,0.4-0.7,1-0.7,1.6c0,0.2,0,0.4,0,0.4
	c-4.9,0.5-6.8,6.5-3.3,9.8c1.1,1,2.5,1.6,4.1,1.5c0.5,0,11.1,0,11.1,0c1.2,0,2.2-1,2.2-2.2c0-0.6-0.2-1.2-0.7-1.6
	c0.4-0.4,0.6-0.9,0.6-1.5h0.8v0.5c0,2.9,2.3,5.2,5.2,5.2h11.9c2.9,0,5.2-2.3,5.2-5.2V19.1C42.3,16.2,40,13.9,37.2,13.9z M28.5,2.4
	c2.6,2.8,3.2,3.4,3.3,3.5c0,0,0,0,0,0c0,0,0,0,0,0c0,0,0,0,0,0l0,0c0,0,0,0,0,0c0,0,0,0,0,0c0,0,0,0,0,0c0,0,0,0,0,0c0,0,0,0,0,0
	h-3.3L28.5,2.4L28.5,2.4z M7.3,26.3H17c0.5,0,0.9,0.4,0.9,0.9c0,0.5-0.4,0.9-0.9,0.9H7.3c-0.5,0-0.9-0.4-0.9-0.9
	C6.4,26.7,6.8,26.3,7.3,26.3z M7.3,29.4H17c0.5,0,0.9,0.4,0.9,0.9c0,0.5-0.4,0.9-0.9,0.9h-6.7C10,31.1,9.7,31,9.5,31
	c-0.4-0.1-0.9-0.2-1.3-0.2c-0.1,0-0.3,0-0.4,0H6.5c-0.1-0.1-0.1-0.3-0.1-0.4C6.4,29.8,6.8,29.4,7.3,29.4z M17.9,33.5
	c0,0.5-0.4,0.9-0.9,0.9h-3.7c-0.3-0.7-0.6-1.3-1.1-1.8H17C17.5,32.6,17.9,33,17.9,33.5z M4.1,32.3c-0.4,0.4-0.8,0.8-1,1.3H2.2
	C2.7,33,3.4,32.6,4.1,32.3z M1.5,34.9h1c0,0.1-0.1,0.5-0.2,1h-1C1.3,35.6,1.4,35.2,1.5,34.9z M1.6,38.2c-0.1-0.3-0.3-0.7-0.3-1.1h1
	c0.2,1,0.2,0.9,0.2,1.1H1.6z M2.5,39.5c0.4,0,0.6,0,0.7,0c0.2,0.4,0.5,0.8,0.9,1.1C3.4,40.3,2.9,40,2.5,39.5z M8.1,40.9
	c-2.4,0.1-4.5-1.8-4.6-4.2c-0.2-3.9,4.5-6.1,7.4-3.4C13.8,35.8,12.1,40.7,8.1,40.9z M17,40.8h-5.4c0.6-0.5,1.1-1.1,1.4-1.8H17
	c0.5,0,0.9,0.4,0.9,0.9C17.9,40.4,17.5,40.8,17,40.8z M17.9,36.8c-0.1,0.5-0.4,0.8-0.9,0.8h-3.5c0.1-0.6,0.2-1.2,0.1-1.8H17
	C17.6,35.8,18,36.3,17.9,36.8z M20.1,35.5h-1.2c-0.1-0.1-0.2-0.3-0.3-0.4c0.9-0.9,0.9-2.3,0-3.2c0.4-0.4,0.7-1,0.7-1.6
	c0-0.6-0.2-1.2-0.7-1.6c1.4-1.4,0.4-3.8-1.6-3.8H9.5v-21c0-1.4,1.2-2.6,2.6-2.6h15.2v5.2c0,0.4,0.3,0.7,0.7,0.7h4.8
	c0.1,0.5,0.1,0.4,0.1,6.6h-7.5c-2.9,0-5.2,2.3-5.2,5.2L20.1,35.5L20.1,35.5z M41.1,37.2c0,2.2-1.8,3.9-3.9,3.9H25.3
	c-2.2,0-3.9-1.8-3.9-3.9V19.1c0-2.2,1.8-3.9,3.9-3.9h11.9c2.2,0,3.9,1.8,3.9,3.9V37.2z"/>
<path class="st2" d="M31.2,21.8h-5.8c-0.5,0-0.8-0.4-0.8-0.8v-2.3c0-0.5,0.4-0.8,0.8-0.8h11.8c0.5,0,0.8,0.4,0.8,0.8v2.3
	c0,0.5-0.4,0.8-0.8,0.8h-6.8c-0.3,0-0.6,0.3-0.6,0.6c0,0.3,0.3,0.6,0.6,0.6h6.8c1.2,0,2.1-0.9,2.1-2.1v-2.3c0-1.2-0.9-2.1-2.1-2.1
	H25.3c-1.2,0-2.1,0.9-2.1,2.1v2.3c0,1.2,0.9,2.1,2.1,2.1h5.8c0.3,0,0.6-0.3,0.6-0.6C31.8,22.1,31.5,21.8,31.2,21.8z"/>
<path class="st2" d="M24.5,34.5h2.1c0.7,0,1.3-0.6,1.3-1.3V31c0-0.7-0.6-1.3-1.3-1.3h-2.1c-0.7,0-1.3,0.6-1.3,1.3v2.1
	C23.2,33.9,23.8,34.5,24.5,34.5z M24.5,31C24.5,31,24.5,31,24.5,31l2.2-0.1c0,0,0.1,0,0.1,0.1v2.1c0,0,0,0.1-0.1,0.1h-2.1
	c0,0-0.1,0-0.1-0.1V31z"/>
<path class="st2" d="M38,24.1h-2.1c-0.7,0-1.3,0.6-1.3,1.3v2.1c0,0.7,0.6,1.3,1.3,1.3H38c0.7,0,1.3-0.6,1.3-1.3v-2.1
	C39.3,24.7,38.7,24.1,38,24.1z M38,27.6C38,27.6,38,27.6,38,27.6l-2.2,0.1c0,0-0.1,0-0.1-0.1c0-2.1-0.1-2.2,0.1-2.2H38
	c0,0,0.1,0,0.1,0.1V27.6z"/>
<path class="st2" d="M24.5,28.9h2.1c0.7,0,1.3-0.6,1.3-1.3v-2.1c0-0.7-0.6-1.3-1.3-1.3h-2.1c-0.7,0-1.3,0.6-1.3,1.3v2.1
	C23.2,28.3,23.8,28.9,24.5,28.9z M24.5,25.4C24.5,25.4,24.5,25.4,24.5,25.4l2.2-0.1c0,0,0.1,0,0.1,0.1v2.1c0,0,0,0.1-0.1,0.1h-2.1
	c0,0-0.1,0-0.1-0.1V25.4z"/>
<path class="st2" d="M27.6,35.5c-0.2-0.3-0.6-0.4-1-0.4h-2.1c-0.4,0-0.7,0.2-1,0.4c-0.5,0.5-0.3,1.1-0.3,1.3v1.7
	c0,0.7,0.6,1.3,1.3,1.3h2.1c0.7,0,1.3-0.6,1.3-1.3v-1.7C27.9,36.5,28.1,36,27.6,35.5z M26.7,38.5c-2.1,0-2.2,0.1-2.2-0.1
	c0-2.3,0-2.2,0.1-2.2h2.1c0.1,0,0,0.1,0.1,0.5C26.7,36.8,26.8,38.5,26.7,38.5z"/>
<path class="st2" d="M37.6,29.7h-1.5c-0.9,0-1.6,0.7-1.6,1.6V38c0,1,0.8,1.8,1.8,1.8h1.2c1,0,1.8-0.8,1.8-1.8v-6.6
	C39.3,30.4,38.5,29.7,37.6,29.7z M38,38c0,0.3-0.2,0.5-0.5,0.5h-1.2c-0.3,0-0.5-0.2-0.5-0.5v-6.6c0-0.2,0.2-0.4,0.4-0.4h1.5
	c0.2,0,0.4,0.2,0.4,0.4V38L38,38z"/>
<path class="st2" d="M16.1,18.2L16.1,18.2c-0.8-0.3-1.3-0.5-1.3-1.2c0-0.6,0.4-1,1.3-1c0.9,0,1.1,0.4,1.5,0.4c0.3,0,0.5-0.4,0.5-0.6
	c0-0.5-0.8-0.8-1.6-0.8v-0.5c0-0.3-0.3-0.6-0.6-0.6c-0.3,0-0.6,0.3-0.6,0.6V15c-1,0.2-1.6,1-1.6,2c0,1.5,1.1,1.9,1.9,2.2
	c0.8,0.3,1.5,0.6,1.5,1.5c0,0.8-0.4,1.2-1.3,1.2c-1.3,0-1.3-0.9-1.8-0.9c-0.3,0-0.5,0.3-0.5,0.6c0,0.5,0.7,1.1,1.8,1.3v0.5
	c0,0.3,0.3,0.6,0.6,0.6c0.3,0,0.6-0.3,0.6-0.6V23c1.1-0.2,1.8-1.1,1.8-2.3C18.2,18.9,17,18.5,16.1,18.2z"/>
<path class="st2" d="M32.3,35h-2.1c-0.4,0-0.7,0.2-1,0.4c-0.5,0.5-0.3,1.1-0.3,1.3v1.7c0,0.7,0.6,1.3,1.3,1.3h2.1
	c0.7,0,1.3-0.6,1.3-1.3v-2.1c0-0.4-0.2-0.7-0.4-0.9C33,35.2,32.6,35,32.3,35z M32.3,38.5c-2.1,0-2.2,0.1-2.2-0.1v-2.1
	c0,0,0-0.1,0.1-0.1h2.1c0,0,0.1,0,0.1,0.1C32.3,38.4,32.4,38.5,32.3,38.5z"/>
<path class="st2" d="M32.3,24.1h-2.1c-0.7,0-1.3,0.6-1.3,1.3v2.1c0,0.7,0.6,1.3,1.3,1.3h2.1c0.2,0,0.3,0,0.5-0.1
	c0.5-0.2,0.8-0.7,0.8-1.2v-2.1C33.6,24.7,33,24.1,32.3,24.1z M32.3,27.6C32.3,27.6,32.3,27.6,32.3,27.6l-2.2,0.1c0,0-0.1,0-0.1-0.1
	v-2.1c0-0.1,0.1,0,2.2-0.1c0,0,0.1,0,0.1,0.1V27.6L32.3,27.6z"/>
<path class="st2" d="M32.8,29.8c-0.1-0.1-0.3-0.1-0.5-0.1h-2.1c-0.7,0-1.3,0.6-1.3,1.3v2.1c0,0.7,0.6,1.3,1.3,1.3h2.1
	c0.7,0,1.3-0.6,1.3-1.3V31C33.6,30.5,33.2,30,32.8,29.8z M32.3,33.2C32.3,33.2,32.3,33.2,32.3,33.2l-2.2,0.1c0,0-0.1,0-0.1-0.1V31
	c0,0,0-0.1,0.1-0.1h2.1c0,0,0.1,0,0.1,0.1V33.2z"/>
<path class="st2" d="M27.1,9.8h1.6c0.3,0,0.6-0.3,0.6-0.6c0-0.3-0.3-0.6-0.6-0.6h-1.6c-0.3,0-0.6,0.3-0.6,0.6
	C26.5,9.5,26.8,9.8,27.1,9.8z"/>
<path class="st2" d="M13.5,9.8h11.1c0.3,0,0.6-0.3,0.6-0.6c0-0.3-0.3-0.6-0.6-0.6H13.5c-0.3,0-0.6,0.3-0.6,0.6
	C12.9,9.5,13.2,9.8,13.5,9.8z"/>
<path class="st2" d="M15.5,12.9c0.3,0,0.6-0.3,0.6-0.6s-0.3-0.6-0.6-0.6h-2c-0.3,0-0.6,0.3-0.6,0.6s0.3,0.6,0.6,0.6H15.5z"/>
<path class="st2" d="M29.3,12.3c0-0.3-0.3-0.6-0.6-0.6H18c-0.3,0-0.6,0.3-0.6,0.6s0.3,0.6,0.6,0.6h10.7C29,12.9,29.3,12.6,29.3,12.3
	z"/>
<path class="st2" d="M7.6,35.2c0-0.2,0.1-0.2,0.1-0.2c0.2-0.1,0.6-0.1,0.9,0.1c0.1,0,0.2,0.1,0.3,0.1c0.6,0,1.1-1.1-0.4-1.4v0
	c0-0.3-0.3-0.6-0.6-0.6c-0.3,0-0.6,0.3-0.6,0.6v0.1c-0.6,0.2-1,0.7-1,1.4c0,1.1,0.8,1.4,1.3,1.6c0.5,0.2,0.7,0.3,0.7,0.7
	c0,0.2-0.1,0.4-0.5,0.4c-0.7,0-0.6-0.5-1.1-0.5c-0.3,0-0.6,0.3-0.6,0.6c0,0.4,0.5,0.8,1.1,1v0c0,0.3,0.3,0.6,0.6,0.6
	s0.6-0.3,0.6-0.6v-0.1c0.7-0.2,1.1-0.8,1.1-1.6C9.7,35.6,7.6,35.9,7.6,35.2z"/>
</svg>
